# xmcd CD database file
#
# Track frame offsets:
#	150
#	14870
#	26959
#	38065
#	51322
#	62453
#	74331
#	87417
#	94872
#	111274
#	119057
#	132479
#	147149
#	156296
#	170516
#	183718
#	197740
#	209591
#	218243
#	228222
#
# Disc length: 3210 seconds
#
# Revision: 2
# Processed by: cddbd v1.5.1PL2 Copyright (c) Steve Scherf et al.
# Submitted via: CDex 1.51
#
DISCID=3a0c8814
DTITLE=Various Artist - Country Gold 6
DYEAR=1900
DGENRE=
TTITLE0=Jim Reeves - Making Believe
TTITLE1=Johnny Cash - I Walk The Line
TTITLE2=Patsy Cline - Just Out Of Reach
TTITLE3=Kenny Rogers - Shine On Ruby Mountain
TTITLE4=Johnny Paycheck - Make Me One More Memory
TTITLE5=Johnny Lee - How's His Memory
TTITLE6=Burl Ives - Snowbird
TTITLE7=Dolly Parton - Puppy Love
TTITLE8=Ferlin Husky - Giddy-Up Go
TTITLE9=Jim Reeves - Roly Poly
TTITLE10=Jimmy Dean - Phils So Right
TTITLE11=Ed Bruce and Lynn Anderson - Texas When I Die
TTITLE12=Johnny Cash - Luther's Boogie
TTITLE13=Johnny Lee - Long Black Veil
TTITLE14=Johnny Paycheck - Nowhere To Run
TTITLE15=Kenny Rogers - Sunshine
TTITLE16=Lynn Anderson - Where's The Fire
TTITLE17=Waylon Jennings - Love's Gonna Live Here
TTITLE18=Bill Monroe - Shenendoah Breakdown
TTITLE19=Patsy Cline - Just A Closer Walk With Thee
EXTD=
EXTT0=
EXTT1=
EXTT2=
EXTT3=
EXTT4=
EXTT5=
EXTT6=
EXTT7=
EXTT8=
EXTT9=
EXTT10=
EXTT11=
EXTT12=
EXTT13=
EXTT14=
EXTT15=
EXTT16=
EXTT17=
EXTT18=
EXTT19=
PLAYORDER=
